
  <svg width="723" height="48" viewBox="0 0 3856 256" fill="none" xmlns="http://www.w3.org/2000/svg" xmlns:xlink="http://www.w3.org/1999/xlink" version="1.1">
    
        <g transform="translate(0, 0)">
          <svg xmlns="http://www.w3.org/2000/svg" width="256" height="256" fill="none" viewBox="0 0 256 256"><rect width="256" height="256" fill="#E14E1D" rx="60"/><path fill="#fff" d="M48 38L56.6098 134.593H167.32L163.605 176.023L127.959 185.661L92.38 176.037L90.0012 149.435H57.9389L62.5236 200.716L127.951 218.888L193.461 200.716L202.244 102.655H85.8241L82.901 69.9448H205.041H205.139L208 38H48Z"/><path fill="#EBEBEB" d="M128 38H48L56.6098 134.593H128V102.655H85.8241L82.901 69.9448H128V38Z"/><path fill="#EBEBEB" d="M128 185.647L127.959 185.661L92.38 176.037L90.0012 149.435H57.9388L62.5236 200.716L127.951 218.888L128 218.874V185.647Z"/></svg>
        </g>
         
        <g transform="translate(300, 0)">
          <svg width="256" height="256" viewBox="0 0 256 256" fill="none" xmlns="http://www.w3.org/2000/svg">
<rect width="256" height="256" rx="60" fill="#0277BD"/>
<path d="M53.7527 102.651L56.6155 134.593H128.096V102.651H53.7527Z" fill="#EBEBEB"/>
<path d="M128.095 38H127.985H48L50.9036 69.9423H128.095V38Z" fill="#EBEBEB"/>
<path d="M128.095 218.841V185.608L127.955 185.645L92.3813 176.04L90.1072 150.564H72.821H58.0425L62.5175 200.718L127.948 218.882L128.095 218.841Z" fill="#EBEBEB"/>
<path d="M167.318 134.593L163.61 176.019L127.985 185.635V218.866L193.468 200.718L193.948 195.321L201.454 111.229L202.233 102.651L208 38H127.985V69.9423H172.994L170.088 102.651H127.985V134.593H167.318Z" fill="white"/>
</svg>

        </g>
         
        <g transform="translate(600, 0)">
          <svg xmlns="http://www.w3.org/2000/svg" width="256" height="256" fill="none" viewBox="0 0 256 256"><rect width="256" height="256" fill="#242938" rx="60"/><g clip-path="url(#clip0_4_180)"><path fill="#0ACF83" d="M94.3467 228C112.747 228 127.68 213.067 127.68 194.667V161.333H94.3467C75.9467 161.333 61.0133 176.267 61.0133 194.667C61.0133 213.067 75.9467 228 94.3467 228Z"/><path fill="#A259FF" d="M61.0133 128C61.0133 109.6 75.9467 94.6667 94.3467 94.6667H127.68V161.333H94.3467C75.9467 161.333 61.0133 146.4 61.0133 128Z"/><path fill="#F24E1E" d="M61.0133 61.3333C61.0133 42.9333 75.9467 28 94.3467 28H127.68V94.6667H94.3467C75.9467 94.6667 61.0133 79.7333 61.0133 61.3333Z"/><path fill="#FF7262" d="M127.68 28H161.013C179.413 28 194.347 42.9333 194.347 61.3333C194.347 79.7333 179.413 94.6667 161.013 94.6667H127.68V28Z"/><path fill="#1ABCFE" d="M194.347 128C194.347 146.4 179.413 161.333 161.013 161.333C142.613 161.333 127.68 146.4 127.68 128C127.68 109.6 142.613 94.6667 161.013 94.6667C179.413 94.6667 194.347 109.6 194.347 128Z"/></g><defs><clipPath id="clip0_4_180"><rect width="133.36" height="200" fill="#fff" transform="translate(61 28)"/></clipPath></defs></svg>
        </g>
         
        <g transform="translate(900, 0)">
          <svg width="256" height="256" viewBox="0 0 256 256" fill="none" xmlns="http://www.w3.org/2000/svg">
<rect width="256" height="256" rx="60" fill="#F0DB4F"/>
<path d="M67.3117 213.932L86.9027 202.076C90.6821 208.777 94.1202 214.447 102.367 214.447C110.272 214.447 115.256 211.355 115.256 199.327V117.529H139.314V199.667C139.314 224.584 124.708 235.926 103.398 235.926C84.1533 235.926 72.9819 225.959 67.3113 213.93" fill="#323330"/>
<path d="M152.381 211.354L171.969 200.013C177.126 208.434 183.828 214.62 195.684 214.62C205.653 214.62 212.009 209.636 212.009 202.762C212.009 194.514 205.479 191.592 194.481 186.782L188.468 184.203C171.111 176.815 159.597 167.535 159.597 147.945C159.597 129.901 173.345 116.153 194.826 116.153C210.12 116.153 221.118 121.481 229.022 135.4L210.291 147.429C206.166 140.04 201.7 137.119 194.826 137.119C187.78 137.119 183.312 141.587 183.312 147.429C183.312 154.646 187.78 157.568 198.09 162.037L204.104 164.614C224.553 173.379 236.067 182.313 236.067 202.418C236.067 224.072 219.055 235.928 196.2 235.928C173.861 235.928 159.426 225.274 152.381 211.354" fill="#323330"/>
</svg>

        </g>
         
        <g transform="translate(1200, 0)">
          <svg xmlns="http://www.w3.org/2000/svg" width="256" height="256" fill="none" viewBox="0 0 256 256"><rect width="256" height="256" fill="#007ACC" rx="60"/><path fill="#fff" d="M56.6112 128.849L56.5299 139.333H73.1902H89.8505L89.8505 186.673V234.012H101.635H113.419V186.673L113.419 139.333H130.079H146.739V129.052C146.739 123.363 146.618 118.609 146.455 118.487C146.333 118.325 126.056 118.243 101.472 118.284L56.7331 118.406L56.6112 128.849Z"/><path fill="#fff" d="M206.567 118.108C213.068 119.734 218.026 122.619 222.577 127.332C224.934 129.852 228.428 134.444 228.713 135.541C228.794 135.866 217.66 143.343 210.915 147.528C210.671 147.691 209.695 146.634 208.598 145.009C205.307 140.214 201.853 138.141 196.57 137.776C188.809 137.247 183.811 141.311 183.852 148.097C183.852 150.088 184.136 151.266 184.949 152.892C186.655 156.427 189.825 158.54 199.781 162.847C218.107 170.731 225.949 175.932 230.826 183.327C236.271 191.576 237.49 204.742 233.792 214.535C229.729 225.181 219.651 232.414 205.469 234.812C201.081 235.584 190.678 235.462 185.965 234.609C175.684 232.78 165.932 227.701 159.918 221.037C157.561 218.436 152.969 211.65 153.254 211.162C153.375 211 154.432 210.35 155.61 209.659C156.748 209.009 161.056 206.53 165.119 204.173L172.474 199.906L174.018 202.182C176.172 205.473 180.885 209.984 183.73 211.487C191.897 215.795 203.113 215.185 208.639 210.228C210.996 208.074 211.971 205.839 211.971 202.548C211.971 199.581 211.605 198.281 210.061 196.046C208.07 193.202 204.007 190.804 192.466 185.806C179.26 180.117 173.571 176.582 168.37 170.974C165.363 167.724 162.518 162.522 161.34 158.174C160.365 154.558 160.121 145.496 160.893 141.839C163.615 129.08 173.246 120.181 187.143 117.539C191.654 116.686 202.137 117.011 206.567 118.108Z"/></svg>
        </g>
         
        <g transform="translate(1500, 0)">
          <svg xmlns="http://www.w3.org/2000/svg" width="256" height="256" fill="none" viewBox="0 0 256 256"><rect width="256" height="256" fill="#242938" rx="60"/><path fill="#81CD39" d="M119.878 31.1164C124.797 28.3008 131.203 28.2883 136.117 31.1164C160.839 45.0855 185.569 59.0332 210.287 73.0108C214.937 75.6296 218.046 80.8038 217.999 86.1608V170.206C218.034 175.785 214.617 181.083 209.712 183.642C185.071 197.535 160.442 211.444 135.805 225.337C130.786 228.207 124.251 227.986 119.387 224.88C112 220.598 104.6 216.336 97.2121 212.058C95.7022 211.158 94.0004 210.442 92.9345 208.978C93.8766 207.708 95.5618 207.55 96.9309 206.995C100.014 206.014 102.847 204.44 105.679 202.913C106.396 202.423 107.27 202.611 107.957 203.049C114.274 206.671 120.536 210.399 126.874 213.986C128.226 214.767 129.595 213.73 130.751 213.086C154.931 199.419 179.141 185.805 203.318 172.134C204.214 171.703 204.709 170.752 204.636 169.771C204.653 142.046 204.64 114.317 204.645 86.5918C204.747 85.4785 204.103 84.455 203.096 83.999C178.541 70.1702 153.997 56.3205 129.446 42.4882C128.575 41.8893 127.426 41.8878 126.554 42.4837C102.002 56.3205 77.4638 70.1832 52.9124 84.011C51.9092 84.4675 51.236 85.4745 51.3554 86.5918C51.3596 114.317 51.3554 142.046 51.3554 169.775C51.2682 170.756 51.801 171.687 52.6906 172.109C59.2422 175.824 65.8024 179.513 72.3582 183.216C76.0516 185.203 80.5863 186.385 84.6555 184.862C88.2463 183.574 90.7633 179.909 90.6948 176.097C90.7288 148.534 90.6778 120.967 90.7203 93.4078C90.6309 92.1841 91.7912 91.1731 92.981 91.2885C96.1292 91.267 99.281 91.2461 102.429 91.297C103.743 91.267 104.647 92.5847 104.485 93.8174C104.472 121.555 104.519 149.293 104.464 177.03C104.472 184.423 101.435 192.467 94.5973 196.084C86.1737 200.447 75.7619 199.522 67.4399 195.338C60.2355 191.742 53.3603 187.498 46.2838 183.646C41.3661 181.101 37.966 175.782 38.0006 170.207V86.1608C37.949 80.6929 41.1825 75.4248 45.9764 72.8445C70.6133 58.9408 95.2461 45.0261 119.878 31.1164Z"/><path fill="#81CD39" d="M141.372 89.3351C152.117 88.6433 163.62 88.9255 173.289 94.2185C180.776 98.2754 184.926 106.789 185.058 115.106C184.849 116.227 183.676 116.846 182.605 116.769C179.488 116.765 176.369 116.812 173.252 116.748C171.929 116.799 171.161 115.58 170.995 114.411C170.099 110.431 167.928 106.49 164.183 104.57C158.433 101.692 151.767 101.837 145.497 101.897C140.92 102.139 135.998 102.536 132.12 105.227C129.143 107.266 128.239 111.382 129.301 114.697C130.303 117.077 133.05 117.845 135.299 118.553C148.248 121.94 161.97 121.602 174.672 126.059C179.931 127.876 185.075 131.409 186.875 136.915C189.23 144.295 188.198 153.115 182.947 159.039C178.689 163.914 172.488 166.568 166.303 168.009C158.075 169.844 149.536 169.891 141.18 169.076C133.323 168.18 125.146 166.116 119.081 160.763C113.894 156.259 111.361 149.241 111.612 142.469C111.672 141.325 112.811 140.527 113.907 140.621C117.046 140.596 120.186 140.587 123.325 140.626C124.58 140.536 125.509 141.62 125.574 142.802C126.152 146.593 127.577 150.573 130.884 152.82C137.264 156.937 145.271 156.655 152.577 156.77C158.63 156.502 165.425 156.421 170.364 152.42C172.97 150.138 173.742 146.32 173.038 143.036C172.275 140.263 169.374 138.971 166.883 138.126C154.1 134.083 140.224 135.55 127.565 130.977C122.425 129.161 117.455 125.727 115.481 120.447C112.726 112.974 113.988 103.73 119.789 98.0061C125.445 92.312 133.609 90.1192 141.372 89.3346V89.3351"/></svg>
        </g>
         
        <g transform="translate(1800, 0)">
          <svg xmlns="http://www.w3.org/2000/svg" width="256" height="256" fill="none" viewBox="0 0 256 256"><rect width="256" height="256" fill="#242938" rx="60"/><path fill="#00D8FF" d="M128.001 146.951C138.305 146.951 146.657 138.598 146.657 128.295C146.657 117.992 138.305 109.639 128.001 109.639C117.698 109.639 109.345 117.992 109.345 128.295C109.345 138.598 117.698 146.951 128.001 146.951Z"/><path fill-rule="evenodd" stroke="#00D8FF" stroke-width="8.911" d="M128.002 90.3633C153.05 90.3633 176.319 93.9575 193.864 99.9976C215.003 107.275 228 118.306 228 128.295C228 138.704 214.226 150.423 191.525 157.944C174.363 163.63 151.779 166.598 128.002 166.598C103.624 166.598 80.5389 163.812 63.1834 157.881C41.2255 150.376 28 138.506 28 128.295C28 118.387 40.4096 107.441 61.2515 100.175C78.8617 94.0353 102.705 90.3633 127.998 90.3633H128.002Z" clip-rule="evenodd"/><path fill-rule="evenodd" stroke="#00D8FF" stroke-width="8.911" d="M94.9811 109.438C107.495 87.7402 122.232 69.3783 136.23 57.1971C153.094 42.5206 169.144 36.7728 177.796 41.7623C186.813 46.9623 190.084 64.7496 185.259 88.1712C181.614 105.879 172.9 126.925 161.021 147.523C148.842 168.641 134.897 187.247 121.09 199.315C103.619 214.587 86.7284 220.114 77.8833 215.013C69.3003 210.067 66.0181 193.846 70.1356 172.161C73.6145 153.838 82.3451 131.349 94.977 109.438L94.9811 109.438Z" clip-rule="evenodd"/><path fill-rule="evenodd" stroke="#00D8FF" stroke-width="8.911" d="M95.0123 147.578C82.4633 125.904 73.9194 103.962 70.3531 85.7517C66.0602 63.8109 69.0954 47.0355 77.7401 42.0315C86.7485 36.8163 103.792 42.866 121.674 58.7437C135.194 70.7479 149.077 88.8052 160.99 109.383C173.204 130.481 182.358 151.856 185.919 169.844C190.425 192.608 186.778 210.001 177.941 215.116C169.367 220.08 153.676 214.825 136.945 200.427C122.809 188.263 107.685 169.468 95.0123 147.578Z" clip-rule="evenodd"/></svg>
        </g>
         
        <g transform="translate(2100, 0)">
          <svg width="256" height="256" viewBox="0 0 256 256" fill="none" xmlns="http://www.w3.org/2000/svg">
<rect width="256" height="256" rx="60" fill="#242938"/>
<path d="M227.088 57.6016L133.256 225.389C131.318 228.854 126.341 228.874 124.375 225.427L28.6823 57.6177C26.54 53.861 29.7524 49.3105 34.0096 50.0715L127.942 66.8613C128.541 66.9684 129.155 66.9674 129.754 66.8582L221.722 50.0955C225.965 49.3222 229.192 53.8374 227.088 57.6016Z" fill="url(#paint0_linear_307_179)"/>
<path d="M172.687 28.0492L103.249 41.6554C102.107 41.879 101.262 42.8462 101.194 44.007L96.9221 116.148C96.8216 117.847 98.3821 119.166 100.04 118.783L119.373 114.322C121.182 113.905 122.816 115.498 122.445 117.317L116.701 145.443C116.314 147.336 118.092 148.954 119.94 148.393L131.881 144.765C133.732 144.203 135.511 145.826 135.119 147.721L125.991 191.9C125.42 194.664 129.096 196.171 130.629 193.801L131.653 192.219L188.235 79.2992C189.183 77.4085 187.549 75.2526 185.472 75.6534L165.573 79.494C163.703 79.8545 162.112 78.113 162.639 76.2834L175.628 31.2582C176.156 29.4255 174.559 27.6825 172.687 28.0492Z" fill="url(#paint1_linear_307_179)"/>
<defs>
<linearGradient id="paint0_linear_307_179" x1="26.3459" y1="44.075" x2="143.127" y2="202.673" gradientUnits="userSpaceOnUse">
<stop stop-color="#41D1FF"/>
<stop offset="1" stop-color="#BD34FE"/>
</linearGradient>
<linearGradient id="paint1_linear_307_179" x1="122.551" y1="31.7433" x2="143.676" y2="176.66" gradientUnits="userSpaceOnUse">
<stop stop-color="#FFEA83"/>
<stop offset="0.0833333" stop-color="#FFDD35"/>
<stop offset="1" stop-color="#FFA800"/>
</linearGradient>
</defs>
</svg>

        </g>
         
        <g transform="translate(2400, 0)">
          <svg xmlns="http://www.w3.org/2000/svg" width="256" height="256" fill="none" viewBox="0 0 256 256"><rect width="256" height="256" fill="#242938" rx="60"/><path fill="url(#paint0_linear_2_119)" fill-rule="evenodd" d="M83 110C88.9991 86.0009 104.001 74 128 74C164 74 168.5 101 186.5 105.5C198.501 108.501 209 104.001 218 92C212.001 115.999 196.999 128 173 128C137 128 132.5 101 114.5 96.5C102.499 93.4991 92 97.9991 83 110ZM38 164C43.9991 140.001 59.0009 128 83 128C119 128 123.5 155 141.5 159.5C153.501 162.501 164 158.001 173 146C167.001 169.999 151.999 182 128 182C92 182 87.5 155 69.5 150.5C57.4991 147.499 47 151.999 38 164Z" clip-rule="evenodd"/><defs><linearGradient id="paint0_linear_2_119" x1="86.5" x2="163.5" y1="74" y2="185.5" gradientUnits="userSpaceOnUse"><stop stop-color="#32B1C1"/><stop offset="1" stop-color="#14C6B7"/></linearGradient></defs></svg>
        </g>
         
        <g transform="translate(2700, 0)">
          <svg xmlns="http://www.w3.org/2000/svg" width="256" height="256" fill="none" viewBox="0 0 256 256"><rect width="256" height="256" fill="#677EEB" rx="60"/><path fill="#F7FAFC" fill-rule="evenodd" d="M52.6582 165.183C50.7411 162.159 50.7122 158.307 52.5835 155.254L123.044 40.3196C126.963 33.927 136.426 34.4859 139.565 41.2954L203.934 180.926C206.322 186.107 203.573 192.203 198.108 193.843L97.9779 223.882C93.9492 225.09 89.6084 223.471 87.3564 219.918L52.6582 165.183ZM131.173 73.9256C131.852 70.5445 136.485 70.0569 137.853 73.2226L182.254 175.963C183.09 177.898 182.05 180.129 180.03 180.731L110.848 201.383C108.305 202.142 105.869 199.92 106.392 197.318L131.173 73.9256Z" clip-rule="evenodd"/></svg>
        </g>
         
        <g transform="translate(3000, 0)">
          <svg width="256" height="256" viewBox="0 0 256 256" fill="none" xmlns="http://www.w3.org/2000/svg">
<g clip-path="url(#clip0_307_145)">
<path d="M60 0C26.8629 0 0 26.8629 0 60V196C0 229.137 26.8629 256 60 256H168.46C166.681 250.757 165.288 242.454 164.504 232.977C163.829 224.825 163.605 215.806 163.979 207.107C163.878 205.821 163.817 204.985 163.817 204.985C163.817 204.985 161.943 192.375 159.246 182.016C158.052 177.418 156.693 173.26 155.266 170.85C154.531 169.607 155.346 164.499 157.397 156.934C158.597 159.005 163.66 167.866 164.677 170.722C165.822 173.95 166.062 174.875 166.062 174.875C166.062 174.875 163.285 160.603 158.729 152.275C159.728 148.908 160.921 145.187 162.271 141.209C163.849 143.976 167.436 150.33 168.732 153.341C168.852 153.62 168.96 153.882 169.039 154.098C169.223 154.62 169.378 155.063 169.517 155.469C170.248 157.587 170.426 158.261 170.426 158.261C170.426 158.261 170.155 156.875 169.651 154.737C169.438 153.834 169.173 152.772 168.878 151.641C167.73 147.232 165.986 141.46 163.753 136.937C169.485 107.143 187.934 68.1305 207.81 47.0689C209.523 45.2554 211.244 43.5577 212.968 42.0275C224.587 31.7274 236.36 28.2483 246.083 36.9095C253.117 43.1773 255.995 51.8346 256 61.8004V60C256 26.8629 229.137 0 196 0H60Z" fill="#D9D9D9"/>
<path d="M60 0C26.8629 0 0 26.8629 0 60V196C0 229.137 26.8629 256 60 256H168.46C166.681 250.757 165.288 242.454 164.504 232.977C163.829 224.825 163.605 215.806 163.979 207.107C163.878 205.821 163.817 204.985 163.817 204.985C163.817 204.985 161.943 192.375 159.246 182.016C158.052 177.418 156.693 173.26 155.266 170.85C154.531 169.607 155.346 164.499 157.397 156.934C158.597 159.005 163.66 167.866 164.677 170.722C165.822 173.95 166.062 174.875 166.062 174.875C166.062 174.875 163.285 160.603 158.729 152.275C159.728 148.908 160.921 145.187 162.271 141.209C163.849 143.976 167.436 150.33 168.732 153.341C168.852 153.62 168.96 153.882 169.039 154.098C169.223 154.62 169.378 155.063 169.517 155.469C170.248 157.587 170.426 158.261 170.426 158.261C170.426 158.261 170.155 156.875 169.651 154.737C169.438 153.834 169.173 152.772 168.878 151.641C167.73 147.232 165.986 141.46 163.753 136.937C169.485 107.143 187.934 68.1305 207.81 47.0689C209.523 45.2554 211.244 43.5577 212.968 42.0275C224.587 31.7274 236.36 28.2483 246.083 36.9095C253.117 43.1773 255.995 51.8346 256 61.8004V60C256 26.8629 229.137 0 196 0H60Z" fill="url(#paint0_linear_307_145)"/>
<path d="M246.083 36.9095C236.36 28.2483 224.587 31.7274 212.968 42.0275C211.244 43.5577 209.523 45.2554 207.81 47.0689C187.934 68.1305 169.485 107.143 163.753 136.937C165.986 141.46 167.73 147.232 168.878 151.641C169.173 152.772 169.438 153.834 169.651 154.737C170.155 156.875 170.426 158.261 170.426 158.261C170.426 158.261 170.248 157.587 169.517 155.469C169.378 155.063 169.223 154.62 169.039 154.098C168.96 153.882 168.852 153.62 168.732 153.341C167.436 150.33 163.849 143.976 162.271 141.209C160.921 145.187 159.728 148.908 158.729 152.275C163.285 160.603 166.062 174.875 166.062 174.875C166.062 174.875 165.822 173.95 164.677 170.722C163.66 167.866 158.597 159.005 157.397 156.934C155.346 164.499 154.531 169.607 155.266 170.85C156.693 173.26 158.052 177.418 159.246 182.016C161.943 192.375 163.817 204.985 163.817 204.985C163.817 204.985 163.878 205.821 163.979 207.107C163.605 215.806 163.829 224.825 164.504 232.977C165.397 243.768 167.079 253.039 169.223 258L170.678 257.207C167.53 247.433 166.251 234.623 166.811 219.849C167.658 197.268 172.861 170.036 182.473 141.653C198.713 98.8063 221.245 64.4287 241.867 48.0113C223.071 64.9667 197.632 119.85 190.017 140.174C181.491 162.933 175.448 184.291 171.807 204.753C178.09 185.57 198.405 177.324 198.405 177.324C198.405 177.324 208.369 165.05 220.013 147.514C213.038 149.103 201.585 151.823 197.748 153.433C192.09 155.804 190.565 156.613 190.565 156.613C190.565 156.613 208.895 145.463 224.621 140.415C246.249 106.39 269.811 58.0531 246.083 36.9095" fill="#003B57"/>
<path d="M28.5202 49C25.4571 49 22.9663 49.8947 21.0568 51.6832C19.1473 53.4733 18.1786 55.8197 18.1786 58.6947C18.1786 60.1847 18.4192 61.5432 18.8932 62.788C19.3672 64.0354 20.1048 65.1909 21.0965 66.235C22.0882 67.2801 24.0732 68.6997 27.0315 70.5046C30.6616 72.6912 33.0372 74.4658 34.1773 75.8514C35.3183 77.2358 35.8844 78.6867 35.8844 80.1993C35.8844 82.2246 35.2087 83.8412 33.8201 85.0565C32.429 86.2722 30.5687 86.8779 28.2622 86.8779C25.8294 86.8779 23.7103 86.0317 21.8905 84.3514C20.0707 82.6686 19.1521 80.4429 19.1314 77.6532H18V87.7788H19.1314C19.4768 86.82 19.9548 86.3295 20.5804 86.3295C20.8814 86.3295 21.5864 86.5343 22.6845 86.917C25.3562 87.855 27.55 88.3076 29.2745 88.3076C32.2464 88.3076 34.7832 87.2806 36.8967 85.1935C39.0071 83.1074 40.0727 80.591 40.0727 77.6532C40.0727 75.3752 39.3692 73.3485 37.9885 71.5818C36.6077 69.813 33.9225 67.7556 29.9097 65.3929C26.4567 63.3459 24.2153 61.6787 23.1807 60.379C22.1446 59.0812 21.6126 57.6456 21.6126 56.0703C21.6126 54.3664 22.247 52.9977 23.4983 51.977C24.7496 50.9554 26.3892 50.4493 28.4408 50.4493C30.7497 50.4493 32.6743 51.1254 34.1972 52.4862C35.7185 53.8493 36.5982 55.7383 36.857 58.1659H37.9885V49.3917H36.9364C36.8078 49.839 36.6887 50.125 36.5791 50.2535C36.4727 50.3812 36.2679 50.4493 35.9638 50.4493C35.5978 50.4493 34.9451 50.2973 34.0186 49.9988C32.0336 49.3392 30.2035 49 28.5202 49ZM65.4999 49C61.7674 49 58.3787 49.868 55.3171 51.6048C52.2507 53.3385 49.8235 55.7459 48.0323 58.8122C46.2419 61.8782 45.3526 65.1346 45.3526 68.6048C45.3526 73.2671 46.8993 77.4206 50.0173 81.0611C53.1368 84.6993 56.8749 86.9663 61.2124 87.8376C62.2041 88.3474 63.6229 89.6635 65.48 91.7938C67.573 94.1978 69.3435 95.9318 70.7997 96.9643C72.2543 97.9974 73.8248 98.7545 75.4842 99.2558C77.1452 99.7549 78.9412 100 80.8832 100C83.235 100 85.3406 99.5967 87.1954 98.7661L86.7785 97.7477C85.7019 98.1309 84.5538 98.3157 83.3446 98.3157C81.7034 98.3157 80.0448 97.7817 78.3822 96.7097C76.722 95.635 74.6457 93.5846 72.1693 90.5599C71.0053 89.1106 70.2018 88.1962 69.7477 87.8376C74.4933 86.9232 78.3957 84.6538 81.439 81.0219C84.4816 77.3916 86.0044 73.2484 86.0044 68.6048C86.0044 63.0913 84.0163 58.4576 80.0694 54.6797C76.1194 50.9015 71.2618 49 65.4999 49ZM88.5848 49L88.6444 50.1947C91.1295 50.1947 92.5214 50.917 92.8326 52.3687C92.9485 52.8881 93.0017 53.8471 93.0113 55.2281L92.9914 81.6486C92.9708 83.6219 92.6858 84.8818 92.1379 85.4286C91.5893 85.9715 90.6619 86.3115 89.3193 86.447L89.2598 87.6417H114.032L114.667 81.6486H113.536C113.213 83.2812 112.472 84.4508 111.293 85.1152C110.11 85.7845 108.02 86.1141 105 86.1141H102.658C99.9412 86.1141 98.3691 85.1449 97.9539 83.1959C97.8681 82.8103 97.8387 82.3968 97.8348 81.9424L97.934 55.2281C97.9334 53.258 98.1857 51.9378 98.7081 51.2915C99.2361 50.6475 100.188 50.2871 101.566 50.1947L101.507 49H88.5849H88.5848ZM65.8969 50.4493C70.1065 50.4493 73.5437 52.0852 76.1988 55.3848C78.853 58.6855 80.1687 63.2094 80.1687 68.9378C80.1687 74.366 78.834 78.7123 76.1591 81.9816C73.4841 85.2498 69.9239 86.8779 65.4999 86.8779C61.2497 86.8779 57.803 85.199 55.1583 81.8249C52.5159 78.4507 51.2082 74.0701 51.2082 68.6832C51.2082 63.1476 52.5318 58.7164 55.198 55.4044C57.8626 52.0959 61.4307 50.4493 65.8969 50.4493ZM122.865 56.129C122.261 56.129 121.8 56.3304 121.456 56.7362C121.103 57.1404 120.995 57.63 121.118 58.2247C121.237 58.8015 121.567 59.307 122.091 59.7327C122.612 60.158 123.174 60.379 123.778 60.379C124.362 60.379 124.808 60.158 125.128 59.7327C125.448 59.307 125.545 58.8015 125.426 58.2247C125.302 57.63 124.984 57.1404 124.493 56.7362C123.996 56.3304 123.449 56.129 122.865 56.129ZM139.201 60.1832C138.174 64.08 135.949 66.1888 132.532 66.5288L132.571 67.6452H136.561L136.482 80.8456C136.488 83.1025 136.558 84.605 136.72 85.3698C137.113 87.2007 138.325 88.1313 140.352 88.1313C143.286 88.1313 146.364 86.368 149.582 82.8433L148.61 82.0207C146.286 84.3419 144.231 85.5069 142.437 85.5069C141.334 85.5069 140.65 84.8811 140.392 83.6463C140.321 83.3464 140.293 82.996 140.293 82.5887L140.333 67.6452H146.426L146.367 65.8629H140.352V60.1832H139.201H139.201ZM162.762 65.1578C159.354 65.1578 156.581 66.7905 154.426 70.0346C152.281 73.2842 151.617 76.8845 152.461 80.8456C152.957 83.1658 153.945 84.9641 155.458 86.2316C156.968 87.4985 158.884 88.1313 161.174 88.1313C163.307 88.1313 166.277 87.5985 167.526 86.5253C168.779 85.4528 169.934 83.7152 171 81.3353L170.146 80.4539C168.446 83.5413 165.013 85.0956 162.425 85.0956C158.866 85.0956 156.687 83.1692 155.875 79.3376C155.769 78.8485 155.69 78.323 155.636 77.7707C159.87 77.1094 163.078 75.9383 165.244 74.2454C167.407 72.5516 169.58 70.7562 169.174 68.8594C168.932 67.7324 168.339 66.8462 167.427 66.1763C166.503 65.5067 164.103 65.1578 162.762 65.1578ZM125.505 65.2949L118.161 66.9597V68.2523L120.701 67.9389C121.932 67.9389 122.656 68.4888 122.885 69.5841C122.962 69.9507 123.01 70.4654 123.024 71.1118L122.944 82.9608C122.924 84.6005 122.739 85.5537 122.369 85.8399C121.995 86.1266 121.009 86.2707 119.411 86.2707L119.371 87.3871H131.023L131.003 86.2707C129.384 86.2707 128.335 86.1447 127.867 85.8986C127.407 85.6541 127.091 85.2091 126.954 84.5276C126.848 84.0365 126.802 83.1903 126.795 82.0207L126.835 65.2949H125.505H125.505ZM160.897 67.4885C161.606 67.4885 162.291 67.7587 162.981 68.2915C163.661 68.8224 164.076 69.4128 164.211 70.0541C164.876 73.2043 162.045 75.3822 155.676 76.5956C155.494 74.2986 155.898 72.2134 156.927 70.3283C157.948 68.4451 159.278 67.4885 160.897 67.4885Z" fill="#003B57"/>
</g>
<defs>
<linearGradient id="paint0_linear_307_145" x1="147.614" y1="5.2389" x2="147.614" y2="241.763" gradientUnits="userSpaceOnUse">
<stop stop-color="#97D9F6"/>
<stop offset="0.920245" stop-color="#0F80CC"/>
<stop offset="1" stop-color="#0F80CC"/>
</linearGradient>
<clipPath id="clip0_307_145">
<rect width="256" height="256" rx="60" fill="white"/>
</clipPath>
</defs>
</svg>

        </g>
         
        <g transform="translate(3300, 0)">
          <svg xmlns="http://www.w3.org/2000/svg" width="256" height="256" fill="none" viewBox="0 0 256 256"><rect width="256" height="256" fill="#F03C2E" rx="60"/><g clip-path="url(#clip0_7_283)"><path fill="#fff" d="M224.225 119.094L136.906 31.775C135.711 30.5787 134.291 29.6298 132.729 28.9824C131.166 28.3349 129.491 28.0017 127.8 28.0017C126.109 28.0017 124.434 28.3349 122.871 28.9824C121.309 29.6298 119.889 30.5787 118.694 31.775L100.569 49.9L123.569 72.9C128.919 71.025 135.044 72.3062 139.306 76.5687C141.335 78.6014 142.752 81.1638 143.394 83.9632C144.036 86.7626 143.878 89.6862 142.937 92.4L165.106 114.569C170.469 112.719 176.656 113.912 180.937 118.206C182.361 119.63 183.49 121.32 184.26 123.18C185.03 125.04 185.426 127.033 185.426 129.046C185.425 131.059 185.029 133.052 184.258 134.912C183.487 136.771 182.358 138.461 180.934 139.884C179.511 141.308 177.821 142.436 175.961 143.206C174.101 143.977 172.108 144.373 170.095 144.372C168.082 144.372 166.088 143.975 164.229 143.205C162.369 142.434 160.679 141.305 159.256 139.881C154.756 135.381 153.644 128.756 155.919 123.212L135.244 102.537V156.944C136.745 157.686 138.116 158.666 139.306 159.844C140.729 161.267 141.858 162.956 142.629 164.816C143.399 166.675 143.795 168.668 143.795 170.681C143.795 172.694 143.399 174.687 142.629 176.546C141.858 178.406 140.729 180.096 139.306 181.519C137.883 182.942 136.193 184.071 134.334 184.841C132.474 185.611 130.481 186.008 128.469 186.008C126.456 186.008 124.463 185.611 122.604 184.841C120.744 184.071 119.054 182.942 117.631 181.519C116.206 180.096 115.076 178.407 114.305 176.548C113.533 174.688 113.136 172.694 113.136 170.681C113.136 168.668 113.533 166.675 114.305 164.815C115.076 162.955 116.206 161.266 117.631 159.844C119.112 158.369 120.756 157.25 122.65 156.5V101.587C120.825 100.837 119.112 99.7312 117.631 98.2437C115.479 96.0943 114.016 93.3526 113.428 90.3684C112.841 87.3841 113.155 84.2924 114.331 81.4875L91.6437 58.8125L31.7687 118.625C30.5716 119.821 29.6219 121.241 28.9739 122.804C28.3259 124.367 27.9924 126.042 27.9924 127.734C27.9924 129.426 28.3259 131.102 28.9739 132.665C29.6219 134.228 30.5716 135.648 31.7687 136.844L119.094 224.156C120.289 225.352 121.709 226.301 123.271 226.949C124.834 227.596 126.509 227.929 128.2 227.929C129.891 227.929 131.566 227.596 133.129 226.949C134.691 226.301 136.111 225.352 137.306 224.156L224.225 137.375C225.422 136.179 226.372 134.759 227.02 133.196C227.668 131.633 228.001 129.958 228.001 128.266C228.001 126.574 227.668 124.898 227.02 123.335C226.372 121.772 225.422 120.352 224.225 119.156"/></g><defs><clipPath id="clip0_7_283"><rect width="200" height="200" fill="#fff" transform="translate(28 28)"/></clipPath></defs></svg>
        </g>
         
        <g transform="translate(3600, 0)">
          <svg width="256" height="256" viewBox="0 0 256 256" fill="none" xmlns="http://www.w3.org/2000/svg">
<rect width="256" height="256" rx="60" fill="#242938"/>
<path d="M128.001 30C72.7791 30 28 74.7708 28 130.001C28 174.184 56.6533 211.668 96.3867 224.891C101.384 225.817 103.219 222.722 103.219 220.081C103.219 217.696 103.126 209.819 103.083 201.463C75.2631 207.512 69.3927 189.664 69.3927 189.664C64.8437 178.105 58.2894 175.032 58.2894 175.032C49.2163 168.825 58.9733 168.953 58.9733 168.953C69.0151 169.658 74.3026 179.258 74.3026 179.258C83.2217 194.546 97.6965 190.126 103.403 187.571C104.301 181.107 106.892 176.696 109.752 174.199C87.5405 171.67 64.1913 163.095 64.1913 124.778C64.1913 113.86 68.0977 104.939 74.4947 97.9362C73.4564 95.4175 70.0335 85.2465 75.4635 71.4722C75.4635 71.4722 83.8609 68.7845 102.971 81.7226C110.948 79.5069 119.502 78.3958 128.001 78.3577C136.499 78.3958 145.061 79.5069 153.052 81.7226C172.139 68.7845 180.525 71.4722 180.525 71.4722C185.968 85.2465 182.544 95.4175 181.505 97.9362C187.917 104.939 191.797 113.86 191.797 124.778C191.797 163.187 168.403 171.644 146.135 174.119C149.722 177.223 152.918 183.308 152.918 192.638C152.918 206.018 152.802 216.787 152.802 220.081C152.802 222.742 154.602 225.86 159.671 224.878C199.383 211.64 228 174.169 228 130.001C228 74.7708 183.227 30 128.001 30ZM65.4536 172.453C65.2333 172.95 64.4517 173.099 63.7396 172.758C63.0143 172.432 62.6069 171.754 62.8421 171.256C63.0574 170.744 63.8406 170.602 64.5643 170.945C65.2913 171.271 65.7053 171.955 65.4536 172.453ZM70.3725 176.842C69.8956 177.285 68.9633 177.079 68.3307 176.38C67.6766 175.683 67.554 174.751 68.0376 174.302C68.5294 173.86 69.4336 174.067 70.0893 174.764C70.7434 175.47 70.8709 176.395 70.3725 176.842ZM73.7471 182.458C73.1344 182.884 72.1325 182.485 71.5132 181.595C70.9004 180.706 70.9004 179.64 71.5264 179.212C72.1474 178.785 73.1344 179.169 73.762 180.052C74.373 180.956 74.373 182.023 73.7471 182.458ZM79.4542 188.962C78.9061 189.566 77.7386 189.404 76.8841 188.579C76.0098 187.773 75.7663 186.629 76.3161 186.024C76.8709 185.418 78.045 185.589 78.9061 186.407C79.7738 187.211 80.0387 188.364 79.4542 188.962ZM86.8301 191.157C86.5883 191.941 85.4639 192.297 84.3312 191.964C83.2002 191.621 82.46 190.704 82.6885 189.912C82.9237 189.124 84.053 188.753 85.194 189.109C86.3234 189.45 87.0652 190.361 86.8301 191.157ZM95.2242 192.089C95.2523 192.913 94.2919 193.597 93.1029 193.612C91.9073 193.639 90.9402 192.971 90.9269 192.16C90.9269 191.327 91.8659 190.65 93.0615 190.63C94.2505 190.607 95.2242 191.269 95.2242 192.089ZM103.47 191.773C103.613 192.577 102.787 193.404 101.606 193.624C100.445 193.836 99.3702 193.339 99.2229 192.541C99.0788 191.716 99.92 190.89 101.079 190.676C102.262 190.471 103.32 190.955 103.47 191.773Z" fill="white"/>
</svg>

        </g>
        
  </svg>
  